<?xml version="1.0" encoding="UTF-8"?>
<svg width="17px" height="20px" viewBox="0 0 17 20" version="1.1" xmlns="http://www.w3.org/2000/svg" xmlns:xlink="http://www.w3.org/1999/xlink">
    <!-- Generator: Sketch 42 (36781) - http://www.bohemiancoding.com/sketch -->
    <title>ic-apple</title>
    <desc>Created with Sketch.</desc>
    <defs></defs>
    <g id="Symbols" stroke="none" stroke-width="1" fill="none" fill-rule="evenodd">
        <g id="Header" transform="translate(-917.000000, -48.000000)">
            <g transform="translate(153.000000, 31.000000)" id="Group-Copy-6">
                <g transform="translate(732.000000, 0.000000)">
                    <g id="ic-apple" transform="translate(28.000000, 15.000000)">
                        <rect id="Rectangle" opacity="0.75" x="0" y="0" width="24" height="24"></rect>
                        <g id="Imported-Layers" stroke-width="1" fill-rule="evenodd" transform="translate(4.000000, 2.000000)" fill="#FFFFFF">
                            <path d="M9.38601811,1.76681967 C10.7540905,0.0384262295 12.6560724,0.03 12.6560724,0.03 C12.6560724,0.03 12.9389155,1.65498361 11.5798732,3.22036066 C10.1286821,4.89183607 8.47920322,4.61829508 8.47920322,4.61829508 C8.47920322,4.61829508 8.16947485,3.30377049 9.38601811,1.76681967" id="Fill-1"></path>
                            <path d="M8.63285312,5.72734426 C9.33672837,5.72734426 10.6428893,4.8 12.3431288,4.8 C15.269831,4.8 16.4211449,6.79616393 16.4211449,6.79616393 C16.4211449,6.79616393 14.1693119,7.8997377 14.1693119,10.5774754 C14.1693119,13.5982623 16.9744487,14.6392787 16.9744487,14.6392787 C16.9744487,14.6392787 15.0135312,19.9297049 12.3649175,19.9297049 C11.14834,19.9297049 10.2026338,19.1438689 8.92082696,19.1438689 C7.614666,19.1438689 6.31835614,19.9590492 5.47417103,19.9590492 C3.05555332,19.9590492 0,14.9405574 0,10.9065902 C0,6.93763934 2.58632596,4.85560656 5.01219517,4.85560656 C6.58919316,4.85560656 7.81302213,5.72734426 8.63285312,5.72734426" id="Fill-2"></path>
                        </g>
                    </g>
                </g>
            </g>
        </g>
    </g>
</svg>