<?xml version="1.0" encoding="UTF-8"?>
<svg width="17px" height="18px" viewBox="0 0 17 18" version="1.1" xmlns="http://www.w3.org/2000/svg" xmlns:xlink="http://www.w3.org/1999/xlink">
    <!-- Generator: Sketch 42 (36781) - http://www.bohemiancoding.com/sketch -->
    <title>Icon / ic-search</title>
    <desc>Created with Sketch.</desc>
    <defs></defs>
    <g id="03-Blog" stroke="none" stroke-width="1" fill="none" fill-rule="evenodd">
        <g id="03.01-Blog-Home" transform="translate(-662.000000, -243.000000)">
            <g id="Group-6" transform="translate(658.000000, 240.000000)">
                <g id="Icon-/-ic-search">
                    <g>
                        <polygon id="Bounds" opacity="0.75" points="0 0 24 0 24 24 0 24"></polygon>
                        <g id="ic-search-normal" transform="translate(4.000000, 3.000000)" fill-rule="nonzero" fill="#555555">
                            <path d="M10.6745175,13.3066377 C9.60576138,13.9869658 8.34544968,14.3796992 6.99588477,14.3796992 C3.1321643,14.3796992 0,11.1606939 0,7.18984962 C0,3.21900532 3.1321643,0 6.99588477,0 C10.8596052,0 13.9917695,3.21900532 13.9917695,7.18984962 C13.9917695,8.8673557 13.4327757,10.4106819 12.4957824,11.6338158 C12.5514367,11.6746811 12.6044783,11.7206936 12.65425,11.7718452 L16.0122747,15.222973 C16.4980461,15.7222128 16.488377,16.5219413 15.9906781,17.0092167 C15.4929793,17.4964921 14.695719,17.486793 14.2099476,16.9875533 L10.8519229,13.5364255 C10.7827483,13.465333 10.7236203,13.388147 10.6745175,13.3066377 Z M12.2491602,7.18984962 C12.2491602,4.20810544 9.89718867,1.79092418 6.99588477,1.79092418 C4.09458087,1.79092418 1.74260936,4.20810544 1.74260936,7.18984962 C1.74260936,10.1715938 4.09458087,12.5887751 6.99588477,12.5887751 C9.89718867,12.5887751 12.2491602,10.1715938 12.2491602,7.18984962 Z" id="Combined-Shape"></path>
                        </g>
                    </g>
                </g>
            </g>
        </g>
    </g>
</svg>