<?xml version="1.0" encoding="UTF-8"?>
<svg width="21px" height="19px" viewBox="0 0 21 19" version="1.1" xmlns="http://www.w3.org/2000/svg" xmlns:xlink="http://www.w3.org/1999/xlink">
    <!-- Generator: Sketch 42 (36781) - http://www.bohemiancoding.com/sketch -->
    <title>ic-unicorn</title>
    <desc>Created with Sketch.</desc>
    <defs></defs>
    <g id="Symbols" stroke="none" stroke-width="1" fill="none" fill-rule="evenodd">
        <g id="Header" transform="translate(-1114.000000, -49.000000)">
            <g transform="translate(153.000000, 31.000000)" id="Group-Copy-5">
                <g transform="translate(931.000000, 0.000000)">
                    <g id="ic-unicorn" transform="translate(28.000000, 15.000000)">
                        <g>
                            <polygon id="Bounds" opacity="0.75" points="0 0 24 0 24 24 0 24"></polygon>
                            <path d="M22.4128808,14.3001043 L22.4128808,20.5699718 C21.8615932,20.5840441 21.617897,20.151702 21.3101658,19.8138258 C21.1590266,19.6478833 21.0165559,19.3296527 20.7700634,19.4857027 C19.905452,20.0325745 18.7792482,19.9060625 17.9841246,20.6755842 C17.3317513,21.3067509 16.4888111,21.7017525 15.5919027,21.9192473 C14.4805192,22.1885729 13.7983655,21.7854901 13.4874186,20.6907712 C13.3415923,20.1776174 13.2280632,19.6555464 13.0904859,19.140024 C13.0161047,18.8612239 12.8955849,18.5682121 12.5555566,18.586743 C11.0610821,18.6683906 9.5095633,18.4670582 8.19838524,19.4809655 C7.74021394,19.835004 7.24163632,20.1443174 6.73578835,20.4284121 C4.95399552,21.4289436 2.56429032,20.0459502 2.52570159,18.0189717 C2.50598778,16.9877875 2.96373964,16.1246357 3.46818946,15.2936693 C4.54014533,13.5276566 5.44614169,11.6624407 6.65134054,9.97723963 C6.89252013,9.64006009 6.91265338,9.38313485 6.60995552,9.0656009 C6.19400812,8.62907879 5.83622345,8.13821783 5.43313896,7.68887732 C4.28694172,6.410939 3.26196344,5.02529828 2,3.85032511 L2,3.43233394 C2.4110539,3.34873571 2.71011659,3.5889413 3.02581717,3.78316786 C4.62948664,4.77018434 6.22952094,5.76319202 7.83962187,6.73989804 C8.43103616,7.09853447 8.68326107,6.95753211 8.73778863,6.27676383 C8.81384758,5.32903853 8.8611048,4.3775513 9.11151213,3.4532335 C9.15890916,3.2780952 9.18659238,3.06018247 9.40372391,3.01866202 C9.63092207,2.97519094 9.71145508,3.18948107 9.81673521,3.33424535 C10.2405122,3.91581039 10.658417,4.50169468 11.0800968,5.08479235 C11.1922278,5.24014574 11.3257504,5.3839347 11.537569,5.34506152 C11.7907726,5.29838584 11.737783,5.07044132 11.767144,4.89669633 C11.8369113,4.48539302 11.8876639,4.0699098 11.980221,3.66376172 C12.0390828,3.40474652 12.0438364,3.03203773 12.3803693,3.00166371 C12.6981671,2.97296165 12.8075019,3.32198427 12.9354319,3.55773129 C13.5128648,4.62221546 13.8563884,5.76193804 13.9420945,7.025804 C14.3167967,6.54232755 14.248847,6.11792719 14.0297581,5.66942267 C13.9209826,5.44705137 13.7983655,5.11809232 14.2447924,5.12547683 C16.0384694,5.15529353 17.6797489,5.55781902 18.7231827,7.1899352 C19.3269007,8.13431658 20.0535153,8.97656878 20.7832059,9.81951763 C21.5956665,10.7577685 22.1476532,11.8026071 22.1777133,13.0773408 C22.1875003,13.4933813 22.2383926,13.9109545 22.4128808,14.3001043" id="Fill-1" fill="#FFFFFF"></path>
                        </g>
                    </g>
                </g>
            </g>
        </g>
    </g>
</svg>