<svg width="17" height="20" xmlns="http://www.w3.org/2000/svg"><g fill="none" fill-rule="evenodd"><path opacity=".75" d="M-4-2h24v24H-4z"/><path d="M9.386 1.767C10.754.038 12.656.03 12.656.03s.283 1.625-1.076 3.19c-1.451 1.672-3.1 1.398-3.1 1.398s-.31-1.314.906-2.851m-.753 3.96c.704 0 2.01-.927 3.71-.927 2.927 0 4.078 1.996 4.078 1.996S14.17 7.9 14.17 10.577c0 3.021 2.805 4.062 2.805 4.062s-1.96 5.29-4.61 5.29c-1.216 0-2.161-.785-3.443-.785-1.306 0-2.603.815-3.447.815C3.056 19.959 0 14.941 0 10.907c0-3.97 2.586-6.051 5.012-6.051 1.577 0 2.801.871 3.62.871" fill="#FFF"/></g></svg>