<svg width="20" height="20" xmlns="http://www.w3.org/2000/svg"><g fill="none" fill-rule="evenodd"><path d="M-2-2h24v24H-2z"/><path d="M10 0C7.284 0 6.944.013 5.878.06 4.812.11 4.088.278 3.45.525a4.884 4.884 0 00-1.771 1.154A4.858 4.858 0 00.525 3.45C.278 4.088.109 4.812.06 5.878.01 6.944 0 7.284 0 10s.013 3.056.06 4.123c.05 1.065.218 1.79.465 2.427a4.884 4.884 0 001.154 1.771c.555.556 1.112.9 1.771 1.154.638.247 1.362.416 2.428.465 1.066.05 1.406.06 4.122.06s3.056-.012 4.123-.06c1.065-.05 1.79-.218 2.427-.465a4.884 4.884 0 001.771-1.154c.556-.555.9-1.112 1.154-1.771.247-.638.416-1.363.465-2.428.05-1.066.06-1.406.06-4.122s-.012-3.056-.06-4.122c-.05-1.066-.218-1.792-.465-2.428a4.884 4.884 0 00-1.154-1.771A4.858 4.858 0 0016.55.525C15.912.278 15.187.109 14.122.06 13.056.01 12.716 0 10 0zm0 1.8c2.67 0 2.988.012 4.041.06.975.045 1.504.207 1.857.345.467.181.8.397 1.15.748.35.35.566.682.747 1.15.137.352.3.88.345 1.856.047 1.055.059 1.371.059 4.041 0 2.67-.013 2.988-.06 4.041-.045.975-.208 1.504-.345 1.857a3.09 3.09 0 01-.748 1.15 3.09 3.09 0 01-1.15.747c-.352.137-.881.3-1.856.345-1.055.047-1.371.059-4.041.059-2.67 0-2.988-.013-4.042-.06-.974-.045-1.503-.208-1.856-.345a3.09 3.09 0 01-1.15-.748 3.09 3.09 0 01-.747-1.15c-.138-.352-.3-.881-.345-1.856C1.813 12.988 1.8 12.67 1.8 10s.012-2.987.06-4.041c.045-.975.207-1.504.345-1.856.181-.468.397-.8.748-1.15a3.09 3.09 0 011.15-.748c.352-.138.88-.3 1.856-.345C7.013 1.812 7.33 1.8 10 1.8zm0 3.065a5.135 5.135 0 100 10.27 5.135 5.135 0 000-10.27zm0 8.469a3.334 3.334 0 110-6.668 3.334 3.334 0 010 6.668zm6.538-8.671a1.2 1.2 0 11-2.401-.001 1.2 1.2 0 012.4 0z" fill="#DD4BA3"/></g></svg>