<svg width="94" height="94" xmlns="http://www.w3.org/2000/svg"><g fill="#FFF" fill-rule="evenodd"><path d="M47.002.162C21.176.162.167 21.171.167 47.003c0 25.826 21.009 46.835 46.835 46.835s46.83-21.009 46.83-46.835c0-25.832-21.004-46.841-46.83-46.841zm0 83.709c-20.36 0-36.875-16.508-36.875-36.868 0-20.369 16.515-36.874 36.875-36.874 20.361 0 36.873 16.505 36.873 36.874 0 20.36-16.512 36.868-36.873 36.868z"/><path d="M37.563 31.64c-.829-.833-2.949-.833-2.949 0v33.845c0 .834 2.125.834 2.957 0l27.781-15.417a2.129 2.129 0 00.016-3.01L37.563 31.64z"/></g></svg>