<svg width="17" height="18" xmlns="http://www.w3.org/2000/svg"><g fill="none" fill-rule="evenodd"><path opacity=".75" d="M-4-3h24v24H-4z"/><path d="M10.675 13.307a6.825 6.825 0 01-3.68 1.073C3.133 14.38 0 11.16 0 7.19 0 3.219 3.132 0 6.996 0c3.864 0 6.996 3.219 6.996 7.19 0 1.677-.56 3.22-1.496 4.444.055.04.108.087.158.138l3.358 3.451c.486.5.476 1.299-.021 1.786a1.257 1.257 0 01-1.781-.021l-3.358-3.452a1.266 1.266 0 01-.177-.23zm1.574-6.117c0-2.982-2.352-5.4-5.253-5.4-2.901 0-5.253 2.418-5.253 5.4s2.352 5.399 5.253 5.399c2.901 0 5.253-2.417 5.253-5.4z" fill-rule="nonzero" fill="#555"/></g></svg>