<svg width="21" height="19" xmlns="http://www.w3.org/2000/svg"><g fill="none" fill-rule="evenodd"><path opacity=".75" d="M-2-3h24v24H-2z"/><path d="M20.413 11.3v6.27c-.551.014-.795-.418-1.103-.756-.151-.166-.293-.484-.54-.328-.865.547-1.99.42-2.786 1.19-.652.63-1.495 1.026-2.392 1.243-1.111.27-1.794-.134-2.105-1.228-.145-.513-.259-1.035-.397-1.551-.074-.279-.194-.572-.534-.553-1.495.081-3.046-.12-4.358.894-.458.354-.956.663-1.462.947-1.782 1-4.172-.382-4.21-2.409-.02-1.031.438-1.894.942-2.725 1.072-1.766 1.978-3.632 3.183-5.317.242-.337.262-.594-.041-.911-.416-.437-.774-.928-1.177-1.377C2.287 3.41 1.262 2.025 0 .85V.432C.411.35.71.59 1.026.783 2.629 1.77 4.23 2.763 5.84 3.74c.591.359.843.218.898-.463.076-.948.123-1.9.374-2.824.047-.175.075-.393.292-.434.227-.044.307.17.413.315.424.582.841 1.168 1.263 1.75.112.156.246.3.458.261.253-.047.2-.275.23-.448.069-.412.12-.827.212-1.233.06-.26.064-.632.4-.662.318-.029.428.32.555.556a8.334 8.334 0 011.007 3.468c.375-.484.307-.908.088-1.357-.109-.222-.232-.55.215-.544 1.793.03 3.435.433 4.478 2.065.604.944 1.33 1.787 2.06 2.63.813.938 1.365 1.983 1.395 3.257.01.416.06.834.235 1.223" fill="#FFF"/></g></svg>